<svg width="463" height="463" viewBox="0 0 463 463" fill="none" xmlns="http://www.w3.org/2000/svg">
<g clip-path="url(#clip0_103_35)">
<path d="M299.044 132.188L275.944 88.788C270.244 78.388 266.744 66.288 266.144 55.088H268.044C272.144 55.088 275.544 51.688 275.544 47.588V10.288C275.544 6.588 272.944 3.488 269.344 2.888C246.944 -0.911997 220.044 -1.012 193.644 2.888C189.944 3.388 187.244 6.588 187.244 10.288V47.588C187.244 51.688 190.644 55.088 194.744 55.088H196.644C195.944 66.288 192.444 78.388 186.744 88.888L163.744 132.288C155.644 145.888 151.944 160.488 151.944 178.288V272.788C151.944 273.388 152.044 273.988 152.144 274.588L165.744 330.488C167.944 340.788 167.144 351.788 163.244 362.288C163.244 362.388 163.144 362.488 163.144 362.588L157.844 379.688C153.344 390.688 151.844 401.988 153.444 413.088C153.444 413.388 153.544 413.688 153.644 414.088C155.344 420.388 155.944 423.488 156.544 426.688C156.844 428.288 157.144 429.888 157.544 431.888C158.444 439.488 162.244 446.288 168.444 450.888C175.644 456.288 185.244 458.388 194.844 456.688C194.944 456.688 195.044 456.688 195.144 456.588L202.044 454.988C208.944 460.788 217.544 462.988 223.344 462.988H239.644C247.744 462.988 252.944 459.488 257.544 456.388C258.344 455.888 259.144 455.288 259.944 454.788L267.844 456.588C267.944 456.588 268.044 456.588 268.144 456.688C277.744 458.488 287.344 456.288 294.544 450.888C300.744 446.288 304.544 439.488 305.444 431.888C305.844 429.888 306.144 428.188 306.444 426.688C307.044 423.488 307.544 420.388 309.344 414.088C309.444 413.788 309.544 413.488 309.544 413.088C311.044 401.988 309.544 390.688 305.144 379.688L299.844 362.588C299.844 362.488 299.744 362.388 299.744 362.288C295.944 351.788 295.044 340.788 297.244 330.488L310.844 274.588C310.944 273.988 311.044 273.388 311.044 272.788V178.288C310.844 160.388 307.044 145.788 299.044 132.188ZM202.144 16.888C222.544 14.488 242.844 14.388 260.544 16.788V40.188H202.144V16.888V16.888ZM176.644 139.688C176.744 139.588 176.744 139.488 176.844 139.388L199.944 95.988C206.844 83.488 210.944 68.788 211.644 55.088H251.144C251.844 68.688 255.944 83.388 262.744 95.888L285.844 139.388C285.944 139.488 285.944 139.588 286.044 139.688C290.844 147.788 293.744 156.088 295.044 165.688H167.644C168.944 156.088 171.844 147.788 176.644 139.688ZM294.644 410.488C292.844 417.088 292.244 420.588 291.644 423.888C291.344 425.488 291.044 427.088 290.644 428.988C290.544 429.288 290.544 429.588 290.544 429.888C290.044 434.488 287.544 437.388 285.444 438.888C281.644 441.688 276.244 442.888 270.944 441.888L260.244 439.488C258.444 439.088 256.544 439.388 254.944 440.188C252.744 441.388 250.744 442.788 249.044 443.888C245.044 446.588 242.944 447.988 239.544 447.988H223.244C219.344 447.988 213.544 446.088 209.844 441.888C208.044 439.788 205.244 438.888 202.544 439.488L191.844 441.888C186.544 442.788 181.144 441.688 177.344 438.888C175.244 437.388 172.744 434.488 172.244 429.888C172.244 429.588 172.144 429.288 172.144 428.988C171.744 427.088 171.444 425.488 171.144 423.888C170.544 420.588 169.944 417.088 168.144 410.488C167.044 401.988 168.244 393.588 171.744 384.988C171.844 384.788 171.944 384.588 171.944 384.388L177.344 367.188C182.144 353.988 183.144 340.188 180.244 327.088C180.244 326.988 180.244 326.988 180.244 326.888L168.944 280.188H293.844L282.544 326.888C282.544 326.988 282.544 326.988 282.544 327.088C279.744 340.088 280.744 353.988 285.444 367.188L290.844 384.388C290.944 384.588 290.944 384.788 291.044 384.988C294.544 393.588 295.744 401.988 294.644 410.488ZM295.844 265.188H166.844V180.688H295.844V265.188Z" fill="#F2F2F2"/>
</g>
<defs>
<clipPath id="clip0_103_35">
<rect width="462.988" height="462.988" fill="white"/>
</clipPath>
</defs>
</svg>
