<svg width="59" height="59" viewBox="0 0 59 59" fill="none" xmlns="http://www.w3.org/2000/svg">
<g clip-path="url(#clip0_103_2)">
<path d="M36.504 22.827C37.0563 22.827 37.504 22.3793 37.504 21.827C37.504 21.2747 37.0563 20.827 36.504 20.827C35.9517 20.827 35.504 21.2747 35.504 21.827C35.504 22.3793 35.9517 22.827 36.504 22.827Z" fill="#F2F2F2"/>
<path d="M41.722 20.179C42.2743 20.179 42.722 19.7313 42.722 19.179C42.722 18.6267 42.2743 18.179 41.722 18.179C41.1698 18.179 40.722 18.6267 40.722 19.179C40.722 19.7313 41.1698 20.179 41.722 20.179Z" fill="#F2F2F2"/>
<path d="M40.41 22.695C40.9623 22.695 41.41 22.2473 41.41 21.695C41.41 21.1427 40.9623 20.695 40.41 20.695C39.8577 20.695 39.41 21.1427 39.41 21.695C39.41 22.2473 39.8577 22.695 40.41 22.695Z" fill="#F2F2F2"/>
<path d="M14.256 18.06C14.8083 18.06 15.256 17.6123 15.256 17.06C15.256 16.5077 14.8083 16.06 14.256 16.06C13.7037 16.06 13.256 16.5077 13.256 17.06C13.256 17.6123 13.7037 18.06 14.256 18.06Z" fill="#F2F2F2"/>
<path d="M20.088 16.736C20.6403 16.736 21.088 16.2883 21.088 15.736C21.088 15.1837 20.6403 14.736 20.088 14.736C19.5357 14.736 19.088 15.1837 19.088 15.736C19.088 16.2883 19.5357 16.736 20.088 16.736Z" fill="#F2F2F2"/>
<path d="M16.865 15.736C17.4173 15.736 17.865 15.2883 17.865 14.736C17.865 14.1837 17.4173 13.736 16.865 13.736C16.3127 13.736 15.865 14.1837 15.865 14.736C15.865 15.2883 16.3127 15.736 16.865 15.736Z" fill="#F2F2F2"/>
<path d="M12.006 34.124C12.5583 34.124 13.006 33.6763 13.006 33.124C13.006 32.5717 12.5583 32.124 12.006 32.124C11.4537 32.124 11.006 32.5717 11.006 33.124C11.006 33.6763 11.4537 34.124 12.006 34.124Z" fill="#F2F2F2"/>
<path d="M15.256 31.8C15.8083 31.8 16.256 31.3523 16.256 30.8C16.256 30.2477 15.8083 29.8 15.256 29.8C14.7037 29.8 14.256 30.2477 14.256 30.8C14.256 31.3523 14.7037 31.8 15.256 31.8Z" fill="#F2F2F2"/>
<path d="M16.865 33.8C17.4173 33.8 17.865 33.3523 17.865 32.8C17.865 32.2477 17.4173 31.8 16.865 31.8C16.3127 31.8 15.865 32.2477 15.865 32.8C15.865 33.3523 16.3127 33.8 16.865 33.8Z" fill="#F2F2F2"/>
<path d="M26.1841 11.787C26.3721 11.744 26.5611 11.778 26.7141 11.874C26.7931 11.923 26.9321 12.035 26.9731 12.232C27.2621 13.632 28.6741 14.526 30.1261 14.233C30.3151 14.191 30.5031 14.224 30.6561 14.32C30.7351 14.369 30.8741 14.481 30.9151 14.678C31.0571 15.367 31.4701 15.954 32.0781 16.331C32.5081 16.598 32.9991 16.735 33.5011 16.735C33.6891 16.735 33.8791 16.716 34.0671 16.677C34.6081 16.565 34.9561 16.035 34.8431 15.494C34.7311 14.954 34.2031 14.609 33.6611 14.718C33.4711 14.758 33.2851 14.726 33.1311 14.631C33.0521 14.582 32.9131 14.47 32.8731 14.273C32.7301 13.584 32.3171 12.996 31.7091 12.62C31.1181 12.252 30.4111 12.129 29.7201 12.273C29.3501 12.352 28.9961 12.149 28.9301 11.827C28.7871 11.138 28.3741 10.55 27.7661 10.174C27.1751 9.80702 26.4661 9.68302 25.7761 9.82702C25.2351 9.93902 24.8871 10.469 25.0001 11.01C25.1131 11.55 25.6381 11.897 26.1841 11.787Z" fill="#F2F2F2"/>
<path d="M30.1401 25.942C29.5881 25.954 29.1501 26.412 29.1611 26.963C29.1641 27.079 29.0971 27.155 29.0491 27.156C27.8831 27.182 26.9561 28.184 26.9821 29.391C26.9851 29.507 26.9181 29.583 26.8701 29.584C26.2921 29.597 25.7591 29.845 25.3661 30.281C24.9901 30.701 24.7901 31.247 24.8031 31.82C24.8151 32.364 25.2601 32.798 25.8021 32.798C25.8101 32.798 25.8171 32.798 25.8251 32.798C26.3771 32.785 26.8151 32.328 26.8021 31.776C26.8011 31.702 26.8401 31.586 26.9141 31.585C28.0801 31.559 29.0081 30.556 28.9821 29.349C28.9791 29.233 29.0461 29.158 29.0931 29.157C30.2591 29.131 31.1871 28.128 31.1611 26.921C31.1491 26.369 30.7191 25.972 30.1401 25.942Z" fill="#F2F2F2"/>
<path d="M22.976 22.292C22.824 22.637 22.455 22.809 22.155 22.677C21.511 22.394 20.793 22.389 20.134 22.666C19.493 22.935 18.983 23.439 18.698 24.087C18.476 24.592 18.705 25.183 19.211 25.404C19.342 25.462 19.479 25.489 19.613 25.489C19.997 25.489 20.364 25.266 20.529 24.891C20.607 24.715 20.741 24.579 20.907 24.509C20.993 24.473 21.165 24.426 21.349 24.506C22.659 25.085 24.21 24.451 24.807 23.097C24.885 22.921 25.019 22.785 25.185 22.715C25.271 22.679 25.443 22.632 25.627 22.712C26.271 22.995 26.989 23 27.648 22.723C28.289 22.454 28.799 21.95 29.084 21.302C29.306 20.797 29.077 20.206 28.571 19.985C28.065 19.761 27.476 19.991 27.253 20.498C27.175 20.674 27.041 20.81 26.875 20.88C26.79 20.916 26.618 20.962 26.433 20.883C25.787 20.6 25.07 20.595 24.411 20.872C23.769 21.141 23.26 21.645 22.976 22.292Z" fill="#F2F2F2"/>
<path d="M57.51 18.848C57.503 18.829 57.488 18.817 57.48 18.798C57.204 17.692 56.851 16.654 56.421 15.687C56.407 15.64 56.379 15.598 56.358 15.552C54.068 10.526 49.788 7.33201 44.623 5.38901C44.591 5.37301 44.568 5.34701 44.533 5.33401C44.509 5.32601 44.485 5.33001 44.461 5.32401C42.256 4.50901 39.895 3.91701 37.466 3.50101C37.46 3.49901 37.457 3.49401 37.451 3.49201C37.321 3.44601 37.187 3.42901 37.057 3.43801C32.066 2.62601 26.816 2.54201 22.038 2.79101C22.025 2.79101 22.015 2.78401 22.002 2.78401C21.981 2.78401 21.963 2.79501 21.941 2.79601C17.655 3.02301 13.756 3.51101 10.796 3.97601C8.23403 4.38001 6.31003 6.44401 6.05303 9.01201C6.05303 9.01301 6.05303 9.01501 6.05303 9.01501C6.04803 9.06701 6.03303 9.11401 6.02903 9.16501L4.52703 28.361C2.70603 29.522 -1.13597 32.668 0.323034 37.824C0.838034 39.642 1.67903 40.711 2.82403 40.998C3.03303 41.051 3.37403 41.225 3.32403 41.543C2.93803 43.991 2.28203 48.508 2.23303 51.256C2.20903 52.579 2.64403 53.689 3.49103 54.463C4.69103 55.561 6.37903 55.725 7.27303 55.725C7.58703 55.725 7.80403 55.704 7.86703 55.698C8.22003 55.675 11.341 55.407 12.371 53.251C12.998 51.939 12.668 50.339 11.399 48.5L27.795 41.853C27.798 41.855 27.802 41.855 27.805 41.857C28 41.96 28.209 42.041 28.425 42.107C28.459 42.118 28.49 42.135 28.525 42.145C28.775 42.214 29.037 42.26 29.312 42.279C29.54 42.293 29.764 42.293 29.984 42.283C30.033 42.281 30.082 42.274 30.132 42.271C30.319 42.258 30.502 42.237 30.681 42.206C30.726 42.198 30.771 42.19 30.816 42.181C31.027 42.14 31.232 42.087 31.429 42.022C31.442 42.018 31.456 42.014 31.469 42.01C32.2 41.762 32.833 41.357 33.307 40.803C33.487 40.593 33.636 40.358 33.772 40.112C33.776 40.106 33.779 40.099 33.782 40.092C33.914 39.85 34.024 39.589 34.113 39.312C34.116 39.303 34.12 39.297 34.123 39.288L52.902 31.673C53.027 31.631 55.999 30.599 57.521 27.475C58.687 25.084 58.683 22.183 57.51 18.848ZM55.004 20.893C54.656 20.131 54.277 19.381 53.869 18.643L55.053 17.63C55.337 18.417 55.575 19.245 55.751 20.125C55.927 21.004 55.775 21.885 55.375 22.629C55.388 22.082 55.283 21.502 55.004 20.893ZM54.219 15.713L52.821 16.909C52.074 15.778 51.219 14.695 50.222 13.683L51.44 11.915C52.536 13.019 53.475 14.278 54.219 15.713ZM44.111 9.43501L44.78 7.58901C46.673 8.38001 48.413 9.36301 49.936 10.571L48.735 12.315C47.427 11.235 45.898 10.267 44.111 9.43501ZM37.2 7.25201L37.786 5.57101C39.555 5.90001 41.276 6.32901 42.909 6.88201L42.266 8.65701C40.757 8.09301 39.071 7.62301 37.2 7.25201ZM30.003 6.41401V4.72101C31.938 4.80501 33.879 4.97101 35.783 5.24201L35.202 6.91001C33.6 6.67301 31.874 6.50401 30.003 6.41401ZM26.78 4.65101C27.186 4.65101 27.594 4.65401 28.003 4.66101V6.34801C26.433 6.32001 24.764 6.34701 23.003 6.42501V4.74201C24.24 4.68701 25.5 4.65101 26.78 4.65101ZM15.003 7.08701V5.41201C16.84 5.18801 18.862 4.98901 21.003 4.85001V6.53101C19.115 6.65401 17.112 6.84101 15.003 7.08701ZM11.108 5.95301C11.699 5.86001 12.339 5.76601 13.003 5.67301V7.32901C11.519 7.52401 9.96303 7.75801 8.36803 8.01501C8.87203 6.93801 9.87503 6.14701 11.108 5.95301ZM10.568 52.385C10.121 53.326 8.32503 53.659 7.69303 53.705C7.21403 53.76 5.65903 53.736 4.84003 52.987C4.41803 52.6 4.21803 52.046 4.23303 51.292C4.28003 48.665 4.92103 44.252 5.30003 41.855C5.50203 40.574 4.66603 39.398 3.31203 39.058C2.93403 38.963 2.53703 38.298 2.24903 37.279C1.07803 33.141 4.46903 30.683 5.98103 29.818L6.44003 29.555L7.96203 10.105C13.249 9.23101 17.893 8.69601 21.972 8.45401C21.983 8.45401 21.992 8.46001 22.003 8.46001C22.021 8.46001 22.036 8.45101 22.054 8.45001C27.452 8.13401 31.866 8.32601 35.505 8.90201C35.524 8.91001 35.536 8.92501 35.556 8.93201C35.665 8.97001 35.776 8.98801 35.885 8.98801C35.917 8.98801 35.947 8.97701 35.979 8.97301C38.42 9.38901 40.494 9.98501 42.284 10.714C42.36 10.77 42.435 10.829 42.529 10.863C42.596 10.887 42.664 10.889 42.732 10.898C44.935 11.849 46.679 13.013 48.097 14.312C48.167 14.422 48.259 14.52 48.373 14.599C48.396 14.615 48.421 14.62 48.445 14.634C50.663 16.777 52.055 19.253 53.185 21.724C54.068 23.653 51.52 25.093 51.229 25.249L32.275 33.13L32.152 33.617C32.019 34.147 32.015 34.719 32.139 35.271C32.406 36.453 32.465 37.447 32.328 38.228L32.305 38.341C32.128 39.188 31.705 39.684 31.191 39.965C30.686 40.229 30.118 40.285 29.726 40.286C29.632 40.285 29.538 40.286 29.447 40.279C29.271 40.267 29.112 40.233 28.965 40.182C28.951 40.177 28.937 40.172 28.923 40.167C28.778 40.112 28.645 40.04 28.526 39.945L28.456 39.889C28.399 39.837 28.342 39.786 28.291 39.723C27.71 39.008 27.591 37.63 27.727 36.654L27.967 34.922L11.7 41.686C9.83703 42.41 8.74003 43.393 8.34703 44.692C7.93003 46.073 8.37403 47.668 9.70703 49.565C10.307 50.418 10.941 51.598 10.568 52.385ZM10.263 45.272C10.463 44.61 11.191 44.031 12.448 43.543L25.702 38.032C25.754 38.738 25.912 39.559 26.297 40.301L10.42 46.738C10.204 46.164 10.142 45.67 10.263 45.272ZM55.737 26.569C54.595 28.941 52.282 29.768 52.208 29.796L34.389 37.02C34.363 36.346 34.271 35.622 34.092 34.833C34.071 34.741 34.058 34.649 34.053 34.559L54.327 26.13C55.097 25.81 55.749 25.319 56.288 24.734C56.187 25.387 56.01 26.003 55.737 26.569Z" fill="#F2F2F2"/>
<path d="M14.046 36.921C18.274 36.921 21.713 34.183 21.713 30.817C21.713 28.771 20.711 27.859 19.869 27.454C18.933 27.004 17.881 27.004 17.046 27.004C15.473 27.004 7.37903 29.027 7.37903 32.817C7.37903 36.921 10.469 36.921 14.046 36.921ZM17.054 29.004C17.058 29.004 17.062 29.004 17.066 29.004C17.698 29.004 18.48 29.006 19.002 29.257C19.215 29.36 19.713 29.599 19.713 30.818C19.713 33.043 17.118 34.922 14.046 34.922C9.37903 34.922 9.37903 34.477 9.37903 32.818C9.37903 31.038 15.511 29.004 17.054 29.004Z" fill="#F2F2F2"/>
<path d="M16.365 20.695C20.593 20.695 24.032 17.957 24.032 14.591C24.032 12.545 23.03 11.633 22.188 11.228C21.256 10.78 20.176 10.778 19.376 10.778C19.372 10.778 19.369 10.778 19.365 10.778C17.792 10.778 9.698 12.801 9.698 16.591C9.698 20.695 12.788 20.695 16.365 20.695ZM19.373 12.778C19.377 12.778 19.381 12.778 19.385 12.778C20.017 12.778 20.799 12.78 21.321 13.031C21.534 13.134 22.032 13.373 22.032 14.592C22.032 16.817 19.437 18.696 16.365 18.696C11.698 18.696 11.698 18.251 11.698 16.592C11.698 14.812 17.83 12.778 19.373 12.778Z" fill="#F2F2F2"/>
<path d="M32.0031 21.551C32.0031 25.654 35.0921 25.654 38.6701 25.654C42.8981 25.654 46.3371 22.917 46.3371 19.551C46.3371 17.504 45.3341 16.592 44.4931 16.188C43.5601 15.739 42.4801 15.737 41.6811 15.737C41.6771 15.737 41.6741 15.737 41.6701 15.737C40.0961 15.736 32.0031 17.76 32.0031 21.551ZM41.6761 17.736C41.6801 17.736 41.6841 17.736 41.6881 17.736C42.3201 17.736 43.1031 17.738 43.6261 17.989C43.8391 18.092 44.3371 18.332 44.3371 19.551C44.3371 21.775 41.7421 23.654 38.6701 23.654C34.0031 23.654 34.0031 23.209 34.0031 21.551C34.0031 19.77 40.1351 17.736 41.6761 17.736Z" fill="#F2F2F2"/>
</g>
<defs>
<clipPath id="clip0_103_2">
<rect width="58.393" height="58.393" fill="white"/>
</clipPath>
</defs>
</svg>
